<mxfile host="Electron" agent="Mozilla/5.0 (Windows NT 10.0; Win64; x64) AppleWebKit/537.36 (KHTML, like Gecko) draw.io/26.0.16 Chrome/132.0.6834.196 Electron/34.2.0 Safari/537.36" version="26.0.16">
  <diagram name="Page-1" id="2YBvvXClWsGukQMizWep">
    <mxGraphModel dx="1613" dy="776" grid="1" gridSize="10" guides="1" tooltips="1" connect="1" arrows="1" fold="1" page="1" pageScale="1" pageWidth="1600" pageHeight="1200" math="0" shadow="0">
      <root>
        <mxCell id="0" />
        <mxCell id="1" parent="0" />
        <mxCell id="XJS1gsRUVMk4cXpGDjSc-13" value=": WebBrowser" style="shape=umlLifeline;perimeter=lifelinePerimeter;whiteSpace=wrap;html=1;container=1;dropTarget=0;collapsible=0;recursiveResize=0;outlineConnect=0;portConstraint=eastwest;newEdgeStyle={&quot;edgeStyle&quot;:&quot;elbowEdgeStyle&quot;,&quot;elbow&quot;:&quot;vertical&quot;,&quot;curved&quot;:0,&quot;rounded&quot;:0};" vertex="1" parent="1">
          <mxGeometry x="480" y="190" width="100" height="750" as="geometry" />
        </mxCell>
        <mxCell id="XJS1gsRUVMk4cXpGDjSc-23" value="" style="html=1;points=[[0,0,0,0,5],[0,1,0,0,-5],[1,0,0,0,5],[1,1,0,0,-5]];perimeter=orthogonalPerimeter;outlineConnect=0;targetShapes=umlLifeline;portConstraint=eastwest;newEdgeStyle={&quot;curved&quot;:0,&quot;rounded&quot;:0};" vertex="1" parent="XJS1gsRUVMk4cXpGDjSc-13">
          <mxGeometry x="45" y="60" width="10" height="150" as="geometry" />
        </mxCell>
        <mxCell id="XJS1gsRUVMk4cXpGDjSc-68" value="" style="html=1;points=[[0,0,0,0,5],[0,1,0,0,-5],[1,0,0,0,5],[1,1,0,0,-5]];perimeter=orthogonalPerimeter;outlineConnect=0;targetShapes=umlLifeline;portConstraint=eastwest;newEdgeStyle={&quot;curved&quot;:0,&quot;rounded&quot;:0};" vertex="1" parent="XJS1gsRUVMk4cXpGDjSc-13">
          <mxGeometry x="45" y="510" width="10" height="220" as="geometry" />
        </mxCell>
        <mxCell id="XJS1gsRUVMk4cXpGDjSc-14" value=":Application" style="shape=umlLifeline;perimeter=lifelinePerimeter;whiteSpace=wrap;html=1;container=1;dropTarget=0;collapsible=0;recursiveResize=0;outlineConnect=0;portConstraint=eastwest;newEdgeStyle={&quot;edgeStyle&quot;:&quot;elbowEdgeStyle&quot;,&quot;elbow&quot;:&quot;vertical&quot;,&quot;curved&quot;:0,&quot;rounded&quot;:0};" vertex="1" parent="1">
          <mxGeometry x="720" y="190" width="100" height="640" as="geometry" />
        </mxCell>
        <mxCell id="XJS1gsRUVMk4cXpGDjSc-25" value="" style="html=1;points=[[0,0,0,0,5],[0,1,0,0,-5],[1,0,0,0,5],[1,1,0,0,-5]];perimeter=orthogonalPerimeter;outlineConnect=0;targetShapes=umlLifeline;portConstraint=eastwest;newEdgeStyle={&quot;curved&quot;:0,&quot;rounded&quot;:0};" vertex="1" parent="XJS1gsRUVMk4cXpGDjSc-14">
          <mxGeometry x="45" y="80" width="10" height="60" as="geometry" />
        </mxCell>
        <mxCell id="XJS1gsRUVMk4cXpGDjSc-29" value="Lưu giao dịch&lt;div&gt;xuống Database&lt;/div&gt;" style="html=1;align=left;spacingLeft=2;endArrow=block;rounded=0;edgeStyle=orthogonalEdgeStyle;curved=0;rounded=0;" edge="1" target="XJS1gsRUVMk4cXpGDjSc-25" parent="XJS1gsRUVMk4cXpGDjSc-14">
          <mxGeometry relative="1" as="geometry">
            <mxPoint x="55" y="90" as="sourcePoint" />
            <Array as="points">
              <mxPoint x="85" y="90" />
              <mxPoint x="85" y="110" />
            </Array>
            <mxPoint x="60" y="120" as="targetPoint" />
          </mxGeometry>
        </mxCell>
        <mxCell id="XJS1gsRUVMk4cXpGDjSc-62" value="" style="html=1;points=[[0,0,0,0,5],[0,1,0,0,-5],[1,0,0,0,5],[1,1,0,0,-5]];perimeter=orthogonalPerimeter;outlineConnect=0;targetShapes=umlLifeline;portConstraint=eastwest;newEdgeStyle={&quot;curved&quot;:0,&quot;rounded&quot;:0};" vertex="1" parent="XJS1gsRUVMk4cXpGDjSc-14">
          <mxGeometry x="45" y="410" width="10" height="70" as="geometry" />
        </mxCell>
        <mxCell id="XJS1gsRUVMk4cXpGDjSc-66" value="Cập nhật trạng thái&lt;div&gt;giao dịch xuống Database&lt;/div&gt;" style="html=1;align=left;spacingLeft=2;endArrow=block;rounded=0;edgeStyle=orthogonalEdgeStyle;curved=0;rounded=0;" edge="1" parent="XJS1gsRUVMk4cXpGDjSc-14">
          <mxGeometry relative="1" as="geometry">
            <mxPoint x="55" y="440" as="sourcePoint" />
            <Array as="points">
              <mxPoint x="100" y="440" />
              <mxPoint x="100" y="460" />
            </Array>
            <mxPoint x="55" y="460" as="targetPoint" />
            <mxPoint as="offset" />
          </mxGeometry>
        </mxCell>
        <mxCell id="XJS1gsRUVMk4cXpGDjSc-71" value="" style="html=1;points=[[0,0,0,0,5],[0,1,0,0,-5],[1,0,0,0,5],[1,1,0,0,-5]];perimeter=orthogonalPerimeter;outlineConnect=0;targetShapes=umlLifeline;portConstraint=eastwest;newEdgeStyle={&quot;curved&quot;:0,&quot;rounded&quot;:0};" vertex="1" parent="XJS1gsRUVMk4cXpGDjSc-14">
          <mxGeometry x="45" y="580" width="10" height="50" as="geometry" />
        </mxCell>
        <mxCell id="XJS1gsRUVMk4cXpGDjSc-15" value="VNPAY" style="shape=umlLifeline;perimeter=lifelinePerimeter;whiteSpace=wrap;html=1;container=1;dropTarget=0;collapsible=0;recursiveResize=0;outlineConnect=0;portConstraint=eastwest;newEdgeStyle={&quot;edgeStyle&quot;:&quot;elbowEdgeStyle&quot;,&quot;elbow&quot;:&quot;vertical&quot;,&quot;curved&quot;:0,&quot;rounded&quot;:0};" vertex="1" parent="1">
          <mxGeometry x="1020" y="200" width="100" height="550" as="geometry" />
        </mxCell>
        <mxCell id="XJS1gsRUVMk4cXpGDjSc-37" value="" style="html=1;points=[[0,0,0,0,5],[0,1,0,0,-5],[1,0,0,0,5],[1,1,0,0,-5]];perimeter=orthogonalPerimeter;outlineConnect=0;targetShapes=umlLifeline;portConstraint=eastwest;newEdgeStyle={&quot;curved&quot;:0,&quot;rounded&quot;:0};" vertex="1" parent="XJS1gsRUVMk4cXpGDjSc-15">
          <mxGeometry x="45" y="160" width="10" height="370" as="geometry" />
        </mxCell>
        <mxCell id="XJS1gsRUVMk4cXpGDjSc-47" value="Xác thực OTP" style="html=1;verticalAlign=bottom;endArrow=block;curved=0;rounded=0;" edge="1" parent="XJS1gsRUVMk4cXpGDjSc-15" target="XJS1gsRUVMk4cXpGDjSc-41">
          <mxGeometry relative="1" as="geometry">
            <mxPoint x="55" y="340" as="sourcePoint" />
            <mxPoint x="335" y="340" as="targetPoint" />
          </mxGeometry>
        </mxCell>
        <mxCell id="XJS1gsRUVMk4cXpGDjSc-16" value="Ngân Hàng" style="shape=umlLifeline;perimeter=lifelinePerimeter;whiteSpace=wrap;html=1;container=1;dropTarget=0;collapsible=0;recursiveResize=0;outlineConnect=0;portConstraint=eastwest;newEdgeStyle={&quot;edgeStyle&quot;:&quot;elbowEdgeStyle&quot;,&quot;elbow&quot;:&quot;vertical&quot;,&quot;curved&quot;:0,&quot;rounded&quot;:0};" vertex="1" parent="1">
          <mxGeometry x="1260" y="200" width="100" height="380" as="geometry" />
        </mxCell>
        <mxCell id="XJS1gsRUVMk4cXpGDjSc-41" value="" style="html=1;points=[[0,0,0,0,5],[0,1,0,0,-5],[1,0,0,0,5],[1,1,0,0,-5]];perimeter=orthogonalPerimeter;outlineConnect=0;targetShapes=umlLifeline;portConstraint=eastwest;newEdgeStyle={&quot;curved&quot;:0,&quot;rounded&quot;:0};" vertex="1" parent="XJS1gsRUVMk4cXpGDjSc-16">
          <mxGeometry x="45" y="260" width="10" height="110" as="geometry" />
        </mxCell>
        <mxCell id="XJS1gsRUVMk4cXpGDjSc-17" value="" style="shape=umlLifeline;perimeter=lifelinePerimeter;whiteSpace=wrap;html=1;container=1;dropTarget=0;collapsible=0;recursiveResize=0;outlineConnect=0;portConstraint=eastwest;newEdgeStyle={&quot;curved&quot;:0,&quot;rounded&quot;:0};participant=umlActor;" vertex="1" parent="1">
          <mxGeometry x="310" y="190" width="20" height="770" as="geometry" />
        </mxCell>
        <mxCell id="XJS1gsRUVMk4cXpGDjSc-24" value="Nhập thông tin thanh toán" style="html=1;verticalAlign=bottom;startArrow=oval;endArrow=block;startSize=8;curved=0;rounded=0;entryX=0;entryY=0;entryDx=0;entryDy=5;" edge="1" target="XJS1gsRUVMk4cXpGDjSc-23" parent="1" source="XJS1gsRUVMk4cXpGDjSc-17">
          <mxGeometry relative="1" as="geometry">
            <mxPoint x="660" y="75" as="sourcePoint" />
          </mxGeometry>
        </mxCell>
        <mxCell id="XJS1gsRUVMk4cXpGDjSc-27" value="Submit form thanh toán" style="html=1;verticalAlign=bottom;endArrow=block;curved=0;rounded=0;entryX=0;entryY=0;entryDx=0;entryDy=5;entryPerimeter=0;" edge="1" parent="1" source="XJS1gsRUVMk4cXpGDjSc-23" target="XJS1gsRUVMk4cXpGDjSc-25">
          <mxGeometry width="80" relative="1" as="geometry">
            <mxPoint x="730" y="110" as="sourcePoint" />
            <mxPoint x="810" y="110" as="targetPoint" />
          </mxGeometry>
        </mxCell>
        <mxCell id="XJS1gsRUVMk4cXpGDjSc-31" value="URL chứa thông tin thanh toán" style="html=1;verticalAlign=bottom;endArrow=open;dashed=1;endSize=8;curved=0;rounded=0;" edge="1" parent="1" source="XJS1gsRUVMk4cXpGDjSc-25" target="XJS1gsRUVMk4cXpGDjSc-23">
          <mxGeometry relative="1" as="geometry">
            <mxPoint x="680" y="290" as="sourcePoint" />
            <mxPoint x="600" y="290" as="targetPoint" />
            <Array as="points">
              <mxPoint x="650" y="320" />
            </Array>
          </mxGeometry>
        </mxCell>
        <mxCell id="XJS1gsRUVMk4cXpGDjSc-38" value="Chuyển hướng tới trang Giao diện của VNPAY" style="html=1;verticalAlign=bottom;endArrow=block;curved=0;rounded=0;entryX=0;entryY=0;entryDx=0;entryDy=5;" edge="1" target="XJS1gsRUVMk4cXpGDjSc-37" parent="1" source="XJS1gsRUVMk4cXpGDjSc-23">
          <mxGeometry relative="1" as="geometry">
            <mxPoint x="550" y="345" as="sourcePoint" />
          </mxGeometry>
        </mxCell>
        <mxCell id="XJS1gsRUVMk4cXpGDjSc-39" value="Hiển thị các thông tin hóa đơn thanh toán tới khách hàng" style="html=1;verticalAlign=bottom;endArrow=open;dashed=1;endSize=8;curved=0;rounded=0;" edge="1" parent="1">
          <mxGeometry relative="1" as="geometry">
            <mxPoint x="536" y="380" as="targetPoint" />
            <mxPoint x="1070.5" y="380" as="sourcePoint" />
          </mxGeometry>
        </mxCell>
        <mxCell id="XJS1gsRUVMk4cXpGDjSc-40" value="Nhập thông tin về thẻ hoặc tài khoản&amp;nbsp;" style="html=1;verticalAlign=bottom;endArrow=block;curved=0;rounded=0;" edge="1" parent="1">
          <mxGeometry x="0.001" width="80" relative="1" as="geometry">
            <mxPoint x="320.00043478260864" y="440" as="sourcePoint" />
            <mxPoint x="1065.37" y="440" as="targetPoint" />
            <mxPoint as="offset" />
          </mxGeometry>
        </mxCell>
        <mxCell id="XJS1gsRUVMk4cXpGDjSc-43" value="Thành công" style="html=1;verticalAlign=bottom;endArrow=open;dashed=1;endSize=8;curved=0;rounded=0;" edge="1" parent="1">
          <mxGeometry relative="1" as="geometry">
            <mxPoint x="1075.0000000000002" y="489" as="targetPoint" />
            <mxPoint x="1304.9999999999998" y="489" as="sourcePoint" />
          </mxGeometry>
        </mxCell>
        <mxCell id="XJS1gsRUVMk4cXpGDjSc-42" value="Gửi yêu cầu xác thực" style="html=1;verticalAlign=bottom;endArrow=block;curved=0;rounded=0;entryX=0;entryY=0;entryDx=0;entryDy=5;" edge="1" target="XJS1gsRUVMk4cXpGDjSc-41" parent="1" source="XJS1gsRUVMk4cXpGDjSc-37">
          <mxGeometry relative="1" as="geometry">
            <mxPoint x="1290" y="455" as="sourcePoint" />
          </mxGeometry>
        </mxCell>
        <mxCell id="XJS1gsRUVMk4cXpGDjSc-45" value="Nhập mã OTP" style="html=1;verticalAlign=bottom;endArrow=block;curved=0;rounded=0;" edge="1" parent="1">
          <mxGeometry x="0.001" width="80" relative="1" as="geometry">
            <mxPoint x="320.00043478260864" y="520" as="sourcePoint" />
            <mxPoint x="1065.37" y="520" as="targetPoint" />
            <mxPoint as="offset" />
          </mxGeometry>
        </mxCell>
        <mxCell id="XJS1gsRUVMk4cXpGDjSc-46" value="Thành công" style="html=1;verticalAlign=bottom;endArrow=open;dashed=1;endSize=8;curved=0;rounded=0;" edge="1" parent="1" source="XJS1gsRUVMk4cXpGDjSc-41">
          <mxGeometry relative="1" as="geometry">
            <mxPoint x="1075" y="560" as="targetPoint" />
            <mxPoint x="1300" y="560" as="sourcePoint" />
          </mxGeometry>
        </mxCell>
        <mxCell id="XJS1gsRUVMk4cXpGDjSc-64" value="Thông báo kết quả giao dịch" style="html=1;verticalAlign=bottom;endArrow=block;curved=0;rounded=0;" edge="1" parent="1">
          <mxGeometry x="0.069" width="80" relative="1" as="geometry">
            <mxPoint x="1065" y="610" as="sourcePoint" />
            <mxPoint x="775" y="610" as="targetPoint" />
            <mxPoint as="offset" />
          </mxGeometry>
        </mxCell>
        <mxCell id="XJS1gsRUVMk4cXpGDjSc-73" value="Trạng thái giao dịch" style="html=1;verticalAlign=bottom;endArrow=open;dashed=1;endSize=8;curved=0;rounded=0;exitX=0;exitY=1;exitDx=0;exitDy=-5;" edge="1" source="XJS1gsRUVMk4cXpGDjSc-71" parent="1" target="XJS1gsRUVMk4cXpGDjSc-68">
          <mxGeometry relative="1" as="geometry">
            <mxPoint x="695" y="795" as="targetPoint" />
          </mxGeometry>
        </mxCell>
        <mxCell id="XJS1gsRUVMk4cXpGDjSc-72" value="Kiểm tra trạng thái giao dịch" style="html=1;verticalAlign=bottom;endArrow=block;curved=0;rounded=0;entryX=0;entryY=0;entryDx=0;entryDy=5;" edge="1" parent="1">
          <mxGeometry relative="1" as="geometry">
            <mxPoint x="535" y="790" as="sourcePoint" />
            <mxPoint x="765" y="790" as="targetPoint" />
          </mxGeometry>
        </mxCell>
        <mxCell id="XJS1gsRUVMk4cXpGDjSc-74" value="Kết quả giao dịch" style="html=1;verticalAlign=bottom;endArrow=open;dashed=1;endSize=8;curved=0;rounded=0;" edge="1" parent="1">
          <mxGeometry relative="1" as="geometry">
            <mxPoint x="525" y="888" as="sourcePoint" />
            <mxPoint x="319.63043478260875" y="888" as="targetPoint" />
          </mxGeometry>
        </mxCell>
        <mxCell id="XJS1gsRUVMk4cXpGDjSc-75" value="loop" style="shape=umlFrame;whiteSpace=wrap;html=1;pointerEvents=0;width=40;height=30;" vertex="1" parent="1">
          <mxGeometry x="510" y="740" width="290" height="100" as="geometry" />
        </mxCell>
        <mxCell id="XJS1gsRUVMk4cXpGDjSc-77" value="par" style="shape=umlFrame;whiteSpace=wrap;html=1;pointerEvents=0;recursiveResize=0;container=1;collapsible=0;width=90;height=30;" vertex="1" parent="1">
          <mxGeometry x="480" y="580" width="670" height="280" as="geometry" />
        </mxCell>
        <mxCell id="XJS1gsRUVMk4cXpGDjSc-67" value="Điều hướng từ VNPAY về giao diện Website" style="html=1;verticalAlign=bottom;endArrow=block;curved=0;rounded=0;" edge="1" parent="XJS1gsRUVMk4cXpGDjSc-77">
          <mxGeometry width="80" relative="1" as="geometry">
            <mxPoint x="585" y="139.63" as="sourcePoint" />
            <mxPoint x="55" y="139.63" as="targetPoint" />
            <Array as="points">
              <mxPoint x="380" y="139.63" />
            </Array>
          </mxGeometry>
        </mxCell>
        <mxCell id="XJS1gsRUVMk4cXpGDjSc-76" value="[status !=pending]" style="text;html=1;align=center;verticalAlign=middle;whiteSpace=wrap;rounded=0;" vertex="1" parent="XJS1gsRUVMk4cXpGDjSc-77">
          <mxGeometry x="70" y="160" width="100" height="20" as="geometry" />
        </mxCell>
        <mxCell id="XJS1gsRUVMk4cXpGDjSc-79" value="" style="endArrow=none;dashed=1;html=1;rounded=0;entryX=0.995;entryY=0.401;entryDx=0;entryDy=0;entryPerimeter=0;exitX=0.002;exitY=0.403;exitDx=0;exitDy=0;exitPerimeter=0;" edge="1" parent="1" source="XJS1gsRUVMk4cXpGDjSc-77" target="XJS1gsRUVMk4cXpGDjSc-77">
          <mxGeometry width="50" height="50" relative="1" as="geometry">
            <mxPoint x="490" y="695" as="sourcePoint" />
            <mxPoint x="540" y="600" as="targetPoint" />
          </mxGeometry>
        </mxCell>
        <mxCell id="XJS1gsRUVMk4cXpGDjSc-80" value="Khách hàng" style="text;html=1;align=center;verticalAlign=middle;whiteSpace=wrap;rounded=0;" vertex="1" parent="1">
          <mxGeometry x="275" y="150" width="90" height="30" as="geometry" />
        </mxCell>
        <mxCell id="XJS1gsRUVMk4cXpGDjSc-81" value="Payment" style="shape=umlFrame;whiteSpace=wrap;html=1;pointerEvents=0;recursiveResize=0;container=1;collapsible=0;width=160;" vertex="1" parent="1">
          <mxGeometry x="230" y="100" width="1170" height="860" as="geometry" />
        </mxCell>
      </root>
    </mxGraphModel>
  </diagram>
</mxfile>
